<?xml version="1.0" encoding="utf-8"?>
<svg
	version="1.1"
	xmlns="http://www.w3.org/2000/svg"
	xmlns:xlink="http://www.w3.org/1999/xlink"
	x="0%" y="0%"
	width="100%" height="100%"
	viewBox="0 0 24.0 24.0"
	enable-background="new 0 0 24.0 24.0"
	xml:space="preserve">
	<path
		fill="#FFFFFF"
		stroke="#FFFFFF"
		fill-opacity="0.000"
		stroke-opacity="1.000"
		fill-rule="nonzero"
		stroke-width="2"
		stroke-linejoin="miter"
		stroke-linecap="square"
		d="M12.13,9.38C16.81,9.38,20.60,10.99,20.60,12.97C20.60,14.95,16.81,16.55,12.13,16.55C7.45,16.55,3.66,14.95,3.66,12.97C3.66,10.99,7.45,9.38,12.13,9.38z"/>
	<path
		fill="#FFFFFF"
		stroke="#FFFFFF"
		fill-opacity="0.000"
		stroke-opacity="1.000"
		fill-rule="nonzero"
		stroke-width="2"
		stroke-linejoin="miter"
		stroke-linecap="square"
		d="M12.14,4.92L12.13,7.37"/>
	<path
		fill="#FFFFFF"
		stroke="#FFFFFF"
		fill-opacity="0.000"
		stroke-opacity="1.000"
		fill-rule="nonzero"
		stroke-width="2"
		stroke-linejoin="miter"
		stroke-linecap="square"
		d="M19.16,5.14L17.83,7.37"/>
	<path
		fill="#FFFFFF"
		stroke="#FFFFFF"
		fill-opacity="0.000"
		stroke-opacity="1.000"
		fill-rule="nonzero"
		stroke-width="2"
		stroke-linejoin="miter"
		stroke-linecap="square"
		d="M6.01,4.92L7.12,7.37"/>
	<path
		fill="#FFFFFF"
		stroke="#FFFFFF"
		fill-opacity="0.000"
		stroke-opacity="1.000"
		fill-rule="nonzero"
		stroke-width="2"
		stroke-linejoin="miter"
		stroke-linecap="square"
		d="M12.13,12.78C12.37,12.78,12.56,12.86,12.56,12.97C12.56,13.07,12.37,13.16,12.13,13.16C11.89,13.16,11.70,13.07,11.70,12.97C11.70,12.86,11.89,12.78,12.13,12.78z"/>
</svg>